<?xml version="1.0" encoding="UTF-8" standalone="no"?>
<!DOCTYPE svg PUBLIC "-//W3C//DTD SVG 1.1//EN" "http://www.w3.org/Graphics/SVG/1.1/DTD/svg11.dtd">
<svg width="100%" height="100%" viewBox="0 0 2048 2048" version="1.1" xmlns="http://www.w3.org/2000/svg" xmlns:xlink="http://www.w3.org/1999/xlink" xml:space="preserve" xmlns:serif="http://www.serif.com/" style="fill-rule:evenodd;clip-rule:evenodd;stroke-linejoin:round;stroke-miterlimit:2;">
    <g transform="matrix(1,0,0,1,5.28392,-74.1636)">
        <g id="Layer2">
            <path d="M518.796,935.37L518.796,1074.72C518.796,1084.51 514.496,1093.8 507.037,1100.13L461.854,1138.5C455.774,1143.66 448.044,1146.47 440.068,1146.42L111.509,1144.34C93.182,1144.22 78.387,1129.33 78.387,1111L78.387,934.912C78.387,926.064 81.905,917.579 88.165,911.327C94.425,905.075 102.914,901.567 111.761,901.578L485.503,902.037C503.897,902.059 518.796,916.976 518.796,935.37Z" style="fill:rgb(255,0,0);"/>
        </g>
    </g>
    <g transform="matrix(1.39405,0,0,1.39405,-863.81,-368.312)">
        <path d="M1836.39,811.763L1836.39,573.616C1836.39,536.821 1866.26,506.949 1903.06,506.949C1939.85,506.949 1969.72,536.821 1969.72,573.616L1969.72,878.427C1969.72,878.486 1969.72,878.546 1969.72,878.606L1969.72,1019.76L1969.72,1328.36C1969.72,1365.15 1939.85,1395.02 1903.06,1395.02C1866.26,1395.02 1836.39,1365.15 1836.39,1328.36L1836.39,1086.43L1777.7,1086.43C1740.89,1086.43 1711.04,1056.58 1711.04,1019.76L1711.04,878.278C1711.04,860.582 1718.07,843.612 1730.6,831.107C1743.12,818.602 1760.1,811.588 1777.79,811.611L1836.39,811.763Z" style="fill:rgb(255,0,0);"/>
    </g>
</svg>
