<?xml version="1.0" encoding="UTF-8" standalone="no"?>
<!DOCTYPE svg PUBLIC "-//W3C//DTD SVG 1.1//EN" "http://www.w3.org/Graphics/SVG/1.1/DTD/svg11.dtd">
<svg width="100%" height="100%" viewBox="0 0 2048 2048" version="1.1" xmlns="http://www.w3.org/2000/svg" xmlns:xlink="http://www.w3.org/1999/xlink" xml:space="preserve" xmlns:serif="http://www.serif.com/" style="fill-rule:evenodd;clip-rule:evenodd;stroke-linejoin:round;stroke-miterlimit:2;">
    <g transform="matrix(1.34399,0,0,1.34399,-347.552,-455.065)">
        <g id="Layer4">
            <path d="M877.568,1353.54C823.669,1310.17 789.163,1243.66 789.163,1169.16C789.163,1099.02 819.751,1035.96 868.314,992.631L868.314,878.085C868.314,864.388 879.419,853.284 893.116,853.284L1159.35,853.284C1173.05,853.284 1184.15,864.388 1184.15,878.085L1184.15,993.559C1232.12,1036.86 1262.27,1099.52 1262.27,1169.16C1262.27,1243.13 1228.26,1309.22 1175.02,1352.6C1173.56,1353.79 1172.09,1354.96 1170.61,1356.11C1166.25,1359.49 1160.9,1361.32 1155.4,1361.32L896.036,1361.32C890.529,1361.32 885.178,1359.49 880.828,1356.11C879.734,1355.27 878.647,1354.41 877.568,1353.54Z" style="fill:rgb(255,0,0);"/>
        </g>
    </g>
</svg>
